<svg id="Layer_2" data-name="Layer 2" xmlns="http://www.w3.org/2000/svg" xmlns:xlink="http://www.w3.org/1999/xlink" width="989.93" height="989.93" viewBox="0 0 989.93 989.93"><defs><style>.cls-1{fill:url(#linear-gradient);}</style><linearGradient id="linear-gradient" x1="302.13" y1="952.85" x2="790.13" y2="305.25" gradientUnits="userSpaceOnUse"><stop offset="0" stop-color="#449ad4"/><stop offset="1" stop-color="#5cc4bc"/></linearGradient></defs><path class="cls-1" d="M540,1030.5l8.9-.06c34,.6,100.62-3,172-40.4,72.34-37.94,111-90.44,127.94-114C902.06,802.16,914.31,731,916.67,716c11.76-74.4-3.6-131.87-15-174.56-18.69-69.89-47-117.89-75.11-164.72-36.7-61.17-59.82-83.93-124.84-168.34-29.33-38.1-72.19-95.22-122.24-167.83V184.05c13.36,20.09,34.67,51.48,62.16,89.09C708,364,734.31,387,770.6,448.74c27.47,46.71,45.64,77.6,57,123.8,6.88,28.07,31.86,129.83-25.39,232.58-10.86,19.49-58.38,99.51-157.46,134.15C603.34,953.75,564.31,955.72,540,955c-24.31.76-63.34-1.21-104.73-15.69-99.08-34.64-146.6-114.66-157.46-134.15-57.25-102.75-32.27-204.51-25.39-232.58,11.34-46.2,29.51-77.09,57-123.8C345.69,387,372,364,438.38,273.14c27.49-37.61,48.8-69,62.16-89.09V40.57C450.49,113.18,407.63,170.3,378.3,208.4c-65,84.41-88.14,107.17-124.84,168.34-28.09,46.83-56.42,94.83-75.11,164.72-11.42,42.69-26.78,100.16-15,174.56,2.36,14.94,14.61,86.14,67.86,160.06,16.94,23.52,55.6,76,127.94,114,71.35,37.42,137.94,41,172,40.4Z" transform="translate(-159.11 -40.57)"/></svg>